<?xml version="1.0" standalone="no"?><!DOCTYPE svg PUBLIC "-//W3C//DTD SVG 1.1//EN" "http://www.w3.org/Graphics/SVG/1.1/DTD/svg11.dtd"><svg t="1626539203633" class="icon" viewBox="0 0 1040 1024" version="1.1" xmlns="http://www.w3.org/2000/svg" p-id="935" xmlns:xlink="http://www.w3.org/1999/xlink" width="203.125" height="200"><defs><style type="text/css"></style></defs><path d="M533.898803 910.823655V481.43536H962.870721a432.849424 432.849424 0 0 1-8.717884 86.554271 426.785941 426.785941 0 0 1-64.616432 153.538845 431.41813 431.41813 0 0 1-115.986887 115.986887A427.930977 427.930977 0 0 1 533.898803 910.823655zM533.482426 481.018984H104.094132a432.381001 432.381001 0 0 1 8.717884-86.111871 426.395588 426.395588 0 0 1 64.616432-153.538844 430.559353 430.559353 0 0 1 188.93085-155.49061 427.124247 427.124247 0 0 1 80.672952-25.034639A432.901471 432.901471 0 0 1 533.482426 52.047066v428.945894z" fill="#C3D2FB" p-id="936"></path><path d="M1040.94132 442.400061H598.541259V0a445.70505 445.70505 0 0 1 89.156624 8.978119 440.214084 440.214084 0 0 1 83.041094 25.789321A442.530179 442.530179 0 0 1 845.764822 75.468246a445.548908 445.548908 0 0 1 65.47521 54.024854A445.470838 445.470838 0 0 1 965.473074 195.176497a442.400061 442.400061 0 0 1 40.778876 75.155964 440.214084 440.214084 0 0 1 25.789322 83.041094A445.78312 445.78312 0 0 1 1040.94132 442.400061z" fill="#386BF3" p-id="937"></path><path d="M275.172838 812.688912l-95.948766 55.378078L130.403924 558.465018l149.999644 121.321711 95.896719-55.430125 48.846172 309.627995z" fill="#303F5B" p-id="938"></path></svg>